<svg xmlns="http://www.w3.org/2000/svg" viewBox="0 0 256 256" role="img" aria-labelledby="title desc">
  <title id="title">PaperHive logo</title>
  <desc id="desc">A PDF document, honeycomb hive and lock mark for PaperHive.</desc>
  <defs>
    <linearGradient id="g" x1="32" y1="20" x2="220" y2="232" gradientUnits="userSpaceOnUse">
      <stop offset="0" stop-color="#ffcf58"/>
      <stop offset=".52" stop-color="#ff7b54"/>
      <stop offset="1" stop-color="#7c3aed"/>
    </linearGradient>
    <filter id="shadow" x="-20%" y="-20%" width="140%" height="140%">
      <feDropShadow dx="0" dy="14" stdDeviation="14" flood-color="#27324a" flood-opacity=".22"/>
    </filter>
  </defs>
  <rect x="18" y="18" width="220" height="220" rx="54" fill="#eef3fb"/>
  <path d="M68 72 102 52l34 20v40l-34 20-34-20V72Zm72 0 34-20 34 20v40l-34 20-34-20V72ZM104 135l34-20 34 20v40l-34 20-34-20v-40Z" fill="url(#g)" opacity=".22"/>
  <g filter="url(#shadow)">
    <path d="M75 52h75l42 42v104c0 10-8 18-18 18H75c-10 0-18-8-18-18V70c0-10 8-18 18-18Z" fill="#fff"/>
    <path d="M150 52v34c0 8 6 14 14 14h28" fill="#f4f7fc"/>
    <path d="M150 52v34c0 8 6 14 14 14h28" fill="none" stroke="#d7deeb" stroke-width="6" stroke-linejoin="round"/>
    <rect x="78" y="116" width="92" height="34" rx="10" fill="#ef4444"/>
    <text x="124" y="139" text-anchor="middle" font-size="26" font-family="Arial, Helvetica, sans-serif" font-weight="800" fill="#fff">PDF</text>
    <path d="M111 181v-15c0-17 13-30 30-30s30 13 30 30v15" fill="none" stroke="#27324a" stroke-width="12" stroke-linecap="round"/>
    <rect x="100" y="175" width="82" height="50" rx="16" fill="url(#g)"/>
    <circle cx="141" cy="199" r="7" fill="#fff"/>
    <path d="M141 204v10" stroke="#fff" stroke-width="6" stroke-linecap="round"/>
  </g>
</svg>
